<svg height="32" viewBox="0 0 211 32" width="211" xmlns="http://www.w3.org/2000/svg"><path d="m211 0-7.201344 31.1035857h-203.798656l7.20146999-31.1035857zm-113.5630594 1.43918386h-39.4666215l-6.5505194 28.29241424h39.4667057zm-15.7954906 12.24818404c.6108517-.0490515 1.2254973-.0193186 1.8287191.0884626-.0607414.2554886-.1346069.5082507-.1959372.7660882-.5635403 2.1403828-1.7620887 6.1171711-3.4359677 8.7151767-.0129672.023546-.0275566.0461668-.0436631.0676996l-.0400877.0547805c-.1261731.1659294-.2802715.3087617-.4554341.4221371-.5634434.411155-1.1992408.7132548-1.8744013.8906238-1.2650836.4419599-2.6550568.3596609-3.8588017-.2284759 1.1161438-1.9576692 3.6945392-6.471189 4.48872-7.7293371 1.0224237-1.6213941 1.7202344-2.8867988 3.587022-3.0472813zm55.377106-4.99720298-.250526.00693332c-1.142846-.01936599-2.270277.2648622-3.266574.82351131-1.181791.76426045-2.116542 1.85320825-2.691465 3.13545025-.097758.222226-.193077.467396-.288395.7350907-.094674.2677506-.189417.5780336-.284231.9308492s-.199709.7774554-.314686 1.2739195c-.114724.4966599-.206467.9213697-.275229 1.2741293s-.117501.6629868-.146217.9306815c-.029613.2678624-.047659.5128227-.05258.734839-.005882.2226639.0051.4454528.032852.6664682.029089.9574938.468507 1.8565916 1.206877 2.4694015.84151.5902933 1.858121.8802354 2.885384.822924 1.114806.0193573 2.215075-.2542928 3.190183-.7934365.94744-.5414677 1.741732-1.313634 2.308635-2.2443232.082307-.1304497.070725-.2217785-.034577-.2739864l-2.351414-1.1367166c-.119128-.0524316-.220209-.0120802-.30316.1200473-.238962.359415-.537973.6752982-.884031.9339113-.340446.2328285-.746625.3510236-1.159218.3373238-.825982.0003635-1.273466-.3870709-1.342452-1.1623032-.015707-.1109016-.019289-.2231761-.010684-.334849.007151-.1181459.023023-.2722947.047617-.4624465.02465-.1908929.068355-.4366502.131452-.7391594.063854-.3022576.148755-.6830786.254701-1.1424631.106803-.4593845.198041-.8410444.27443-1.1426309.07639-.3015864.147227-.5479729.210324-.7382366.064331-.1905433.119912-.3449159.166744-.4631176.045733-.1162308.10126-.2283882.165987-.3352685.343189-.7223585 1.079134-1.1770482 1.880585-1.1618837.367153-.0323903.731084.0903712 1.003116.3383724.229614.2672144.385117.5896863.451059.9353793.021678.1307574.104405.1700182.248182.1177823l2.877223-1.1367165c.119004-.0335645.190367-.1546557.161864-.2746576-.110114-.8855629-.566274-1.6920076-1.269343-2.24407149-.826388-.57004216-1.819657-.84934867-2.822959-.79381407zm10.858215.00393982-.259802.00316128c-1.156865-.00540164-2.296729.27768487-3.315916.82351132-1.041133.55872586-1.894322 1.41066016-2.453211 2.44960326-.139654.2610953-.26289.5093273-.369706.7446962-.112051.2492929-.210514.5044402-.294957.7643265-.090075.2745457-.18071.5814872-.271906.9208243-.09201.3399244-.190876.7384883-.296598 1.1956916-.105723.4572034-.191451.8556834-.257184 1.19544-.065172.3399803-.116645.6469917-.154419.921034-.035755.2566895-.056066.5152832-.060825.7743934-.003839.2452474.004936.4905298.02629.734881.042541.9743508.528302 1.8761884 1.319442 2.4496033.867181.5750472 1.894033.86299 2.934683.8229241 1.156816.0057013 2.296692-.27719 3.315873-.8229241 1.041211-.5589075 1.894625-1.410774 2.454053-2.4496033.135841-.2480363.257982-.4929966.366425-.734881.10791-.2422478.210057-.500379.306441-.7743934s.187314-.5810257.272789-.921034c.085139-.3394211.18071-.737901.286713-1.19544.106003-.4574829.195012-.8560468.267027-1.1956916.072014-.3396447.123221-.6465862.15362-.9208243.029591-.2537746.04599-.5088828.0493-.7643265.002187-.2351452-.005763-.4833772-.023851-.7446962-.042541-.9743508-.528302-1.8761884-1.319442-2.44960326-.867099-.57524841-1.893941-.86339805-2.934641-.82351132zm9.571971.23851614h-3.066135c-.120123-.00907803-.226461.07693266-.242335.19601021l-1.846092 7.97635281c-.197752.7641512-.255085 1.5576974-.169226 2.3422234.068728.6131866.304238 1.1959756.681069 1.6853606.379523.4643395.878896.8166328 1.444332 1.0189343.68068.2416255 1.399752.3578024 2.12212.3428605.76385.0052902 1.523694-.1104385 2.251133-.3428605.691614-.22321 1.337467-.5683198 1.906875-1.0189343.586135-.4708176 1.084029-1.0414136 1.470623-1.6853606.432659-.7262103.745222-1.5170472.925885-2.3422234l1.846092-7.97635281c.030398-.13067347-.019715-.19601021-.150339-.19601021h-3.066136c-.120122-.00907803-.22646.07693266-.242334.19601021l-1.900313 8.20759701c-.112421.5914091-.406085 1.1334701-.840494 1.5514294-.408829.3672884-.9435.5639905-1.49359.5494829-.477181.0396936-.941354-.1678221-1.229088-.5494829-.269012-.4722819-.323977-1.0363389-.15118-1.5514294l1.900313-8.20759701c.030371-.13049171-.020527-.19601021-.15118-.19601021zm25.584147-.23573237c-.719206-.00579007-1.435176.09660307-2.12376.30372564-.626174.188219-1.219077.47267059-1.757336.84309975-.509456.3530042-.951145.7944336-1.304004 1.3032393-.357234.5151755-.611829 1.0940213-.749929 1.7050329-.290554 1.2544989-.132812 2.2149335.473228 2.8813039.606039.6663704 1.611917 1.1039154 3.017634 1.312635l.685192.098068c.443365.0222988.872261.1646262 1.240613.4116927.192663.1800615.266491.4533646.190595.7055613-.091869.3846106-.338918.7143293-.682752.9112188-.456528.2505067-.974018.3692321-1.494431.3428606-.624762.0099855-1.24302-.1276572-1.804196-.4016678-.48224-.2298207-.918429-.5453734-1.287178-.9311848-.070669-.0909374-.164305-.0847714-.280151.0200918l-2.249492 2.077381c-.129531.1047233-.147058.2091111-.052581.3131633.22334.2779398.488908.5193306.787072.7154184.362227.2440511.750124.4478854 1.156778.6078707.458102.1827397.931901.3236113 1.41556.4208787.521858.1061282 1.053242.1586941 1.585838.1568753.822238.0093388 1.641541-.099437 2.432684-.3229785.682815-.1926047 1.330025-.4937201 1.916718-.8917563.531288-.3636236.990596-.8220401 1.354777-1.3521474.354553-.5168021.608469-1.0952713.748877-1.7054104.293218-1.2673062.147535-2.2374302-.437052-2.910372s-1.586371-1.1139682-3.005352-1.3230793l-.68435-.0979003c-.443272-.0161686-.873912-.1515492-1.246334-.3918107-.205929-.1801836-.286383-.4642513-.205401-.7252335.075867-.3269901.271995-.613701.549616-.8034615.35136-.2262612.765409-.3360821 1.183069-.3137925.509494-.004922 1.015451.0848189 1.491991.2646326.462383.1797374.895207.4274236 1.284108.7348391.089598.0655185.18573.045944.288396-.0587234l1.968626-2.1359785c.105919-.118006.115734-.2160461.029445-.2941202-.54893-.48667723-1.19363-.85382733-1.89291-1.07799322-.820341-.26983973-1.679847-.40229253-2.543608-.39197847zm-111.2578735 4.95914629c1.9293377-.2557822 2.8325501.2631646 2.2352319 2.1297287-.7983007 2.3915273-1.9499328 4.650917-3.4168703 6.7035658-.1072229-.0822547-.2078836-.169375-.3308386-.2590959-2.9995889-2.3353443-4.7941936-4.4607527-5.3410341-6.2930056-.0057572-.0158164-.0115444-.0345853-.0161949-.053648-.0526886-.1574398-.0948458-.3181914-.126194-.481196 2.2557832-.8518761 4.6036737-1.4379674 6.9959-1.746349zm39.3285535-4.92640941-.227768.00698529c-1.025348-.02005599-2.036092.24459105-2.919288.76436849-.883082.54931803-1.606708 1.31941853-2.099026 2.23383683-.111714.190361-.212918.3866635-.30316.5880306-.094786.2090272-.192278.4606009-.292476.7547211-.100815.29426-.207898.6437339-.321248 1.0484218-.113939.4052472-.237455.8952237-.370547 1.4699297-.132841.5752653-.236362 1.0653118-.310564 1.4701395s-.12897.7543016-.164304 1.0484218c-.035307.2935329-.055021.5483224-.059143.7643685-.005346.1931895.005912.3864806.033651.577754.040263.857023.423861 1.6620561 1.064741 2.234508.736962.5501672 1.646135.8210284 2.564977.7641588 1.018558.0183834 2.022155-.2462039 2.898507-.7641588.883334-.5495925 1.607247-1.3198913 2.099952-2.234508.091225-.1696825.18817-.3622672.290836-.577754.115657-.24899.217413-.5041694.3048-.7643685.100759-.2940642.207842-.6435382.321248-1.0484218.113687-.4053031.236922-.8953496.369706-1.4701395s.236544-1.0647664.311279-1.4699297c.073388-.4048277.128157-.7543016.164304-1.0484218.031973-.2502938.047738-.5023952.047131-.7547211-.004421-.2086916-.011544-.4047018-.021387-.5880306-.040859-.8568616-.424718-1.6615666-1.065582-2.23383683-.730012-.54836385-1.632107-.81936327-2.544407-.76436849zm87.264876.20307938h-8.746505c-.120023-.00873618-.226167.07710259-.242377.19601021l-2.994625 12.93482802c-.030413.1308692.020528.1960102.15198.1960102h8.745663c.119894.0088508.225871-.0771521.241536-.1960102l.585792-2.5282087c.029698-.1304498-.020527-.1958005-.15118-.1958005h-5.36581c-.078872 0-.108443-.0395124-.090397-.1177403l.494596-2.1361883c.009249-.0712938.072714-.1229821.144618-.1177823h4.402992c.119975.0091108.22611-.0770194.241536-.1960102l.571658-2.4694853c.030399-.1305337-.019728-.1958005-.150381-.1958005h-4.402824c-.078871 0-.109242-.039093-.091196-.1177403l.467507-2.018406c.00938-.0715575.073257-.1232957.145417-.1177823h5.365684c.119894.0088508.225871-.0771521.241536-.1960102l.584993-2.52795701c.030399-.13067347-.019672-.19598224-.150213-.19592632zm-26.376183-.00012583h-5.444555c-.120024-.00873619-.226168.07710259-.242377.1960102l-2.994625 12.93482796c-.030413.1308692.020527.1960102.151979.1960102h3.066094c.119895.008831.225872-.0771568.241577-.1960102l1.025326-4.4290421c.00938-.0715574.073257-.1232957.145418-.1177822h1.277545l.971105 4.5468663c.006358.0593182.036449.113569.08346.1504658.04701.0368969.106962.053318.166278.0455444h3.400507c.05904.0027023.115824-.0228737.152821-.0688322.037428-.0467641.051624-.1079049.038615-.166313l-1.281499-5.0760477c.768858-.33733 1.446907-.8510348 1.978889-1.4992495.529539-.6477001.900803-1.4093012 1.08447-2.2246508.142703-.5637698.168468-1.1506573.075716-1.7247052-.085645-.4994622-.298685-.9685622-.618645-1.3622143-.348931-.40725348-.799985-.71488953-1.307117-.89150462-.632754-.2217818-1.300436-.32793889-1.970982-.31337304zm-52.925864-.00059095-.06564.00063289h-.738613c-.120974-.00969344-.228612.07619026-.245658.19601021l-2.994625 12.93482801c-.030413.1308692.022168.1960102.155261.1960102h.740338c.120841.0098084.228313-.0762382.244816-.1960102l2.541126-10.9752293h.078871l4.062521 10.9752293c.038603.1243507.15821.2056426.288395.1960102h.766503c.120138.0091013.226502-.0769153.242376-.1960102l2.994668-12.93482801c.030539-.13049171-.021033-.19601021-.154294-.19601021h-.740338c-.120974-.00969344-.228617.07619026-.245657.19601021l-2.536205 10.95551501h-.058301l-4.107909-10.95551501c-.034252-.12969908-.159949-.21370863-.293275-.19601021zm-97.1238302-.00276467h-6.0374146l-3.1402953 13.31225148h3.5129461l2.5007862-10.9117242.0397511.0017617.5420452 10.9099625h3.6326621l5.6569818-10.9100464.0393305-.0017617-2.6223531 10.9118081h3.7710128l3.0071605-13.12257501 3.2029295 7.91507081.0190974-.0002097-1.1751605 5.2077139h3.7710128l1.1994317-5.2340556h.0079923l6.4112853-8.07819588h-3.8619565l-3.9506289 5.15394008h-.0399614l-2.0283579-5.15394008h-9.6701609l-4.5226661 8.94096798h-.0413917zm88.6879962.86545657c1.650589.00036353 2.551053.75172901 2.701392 2.25409641.009044.1307014.014807.287367.018103.470458.00058.2294916-.016181.4587013-.050156.6856792-.037774.274322-.091996.6074932-.162664.9995136-.070641.3921323-.168133.8560189-.292476 1.3916599s-.241549.9994717-.351618 1.3914921c-.110939.3919365-.211179.7250239-.300721.999262-.073596.2343785-.162789.4636008-.266984.6861406-.087915.183105-.166786.3399803-.236614.4706258-.700447 1.4153366-2.162528 2.2951164-3.744764 2.2533414-1.664527.0000839-2.571539-.7510299-2.721037-2.2533414-.009044-.1306595-.015648-.287325-.018947-.4706258-.000633-.2296764.016397-.4590637.050958-.6861406.036989-.27435.091211-.6074373.162664-.999262.070922-.3918526.168427-.8556833.292518-1.3914921.124035-.5360884.241241-.999975.351619-1.3916599.110377-.3916848.210337-.724856.299879-.9995136.073721-.2341906.162925-.4632522.267026-.6856792.0887-.1827695.167572-.3395888.236614-.470458.70658-1.4194979 2.176611-2.29955283 3.765208-2.25409641zm36.278372 1.95980841c.3655-.0208312.726702.0872053 1.020363.3051938.2563.221036.407531.5393861.416692.8771593.01185.1277143.014872.2560904.009044.3842185-.009977.1717257-.029738.3427468-.059185.5122356-.034773.2036023-.082138.4496811-.142094.7382366-.060545.2891426-.136416.630633-.227612 1.024471-.091196.3942575-.173349.735678-.246457 1.0242614-.073669.2889189-.140496.5351796-.20048.7387819-.050015.1736568-.109312.3445204-.177639.511858-.055236.1315164-.117786.2598584-.187356.3844283-.378947.741109-1.150023 1.2003675-1.984064 1.1817238-.365291.0208237-.72627-.0872858-1.019605-.3053615-.256284-.2206837-.407463-.5388269-.416441-.8763623-.011891-.1277821-.014913-.2562308-.009044-.3844283.009508-.1717351.02954-.3427296.059985-.5120258.033427-.2035184.080525-.4497791.141295-.7387819.059984-.2887792.135574-.6301996.22677-1.0242613.091701-.3935585.174134-.7350488.247299-1.0244711.073108-.2884576.140496-.5346763.200438-.7382366.049594-.1738921.108842-.344901.177471-.5122355.05523-.1314438.117765-.2597156.187313-.3842186.378436-.7412833 1.149341-1.2007953 1.983307-1.1821853zm24.191261.09811c.396248-.0386836.789045.101614 1.070545.382373.223923.2935147.289308.6778494.174989 1.0285817-.086471.4095639-.317339.7746387-.650698 1.0289592-.361476.2635275-.801316.3982013-1.248816.382373h-1.84769c-.078072 0-.108443-.039093-.090397-.1177404l.598959-2.5867642c.00938-.0715575.073257-.1232957.145417-.1177823zm-87.6418902-3.63325658c.5167656.26348344.8300669.80512464.8000278 1.38310304l-.005258.09227957c0 .03003281-.0079082.05746501-.0079082.08602973-.0157322.12411603-.0287302.24638644-.0444203.37830434-6.0893159-1.07159026-12.3269842-.98457528-18.3838554.2564533 3.3338347-3.87242846 10.4311526-5.86814204 17.6414141-2.19616998z" fill="#63656a" fill-rule="evenodd"/></svg>